<mxfile host="Electron" agent="Mozilla/5.0 (Windows NT 10.0; Win64; x64) AppleWebKit/537.36 (KHTML, like Gecko) draw.io/28.0.6 Chrome/138.0.7204.100 Electron/37.2.3 Safari/537.36" version="28.0.6">
  <diagram name="3D Monolith Block" id="0">
    <mxGraphModel dx="1924" dy="1816" grid="1" gridSize="10" guides="1" tooltips="1" connect="1" arrows="1" fold="1" page="1" pageScale="1" pageWidth="827" pageHeight="1169" background="#F5F5DC" math="0" shadow="0">
      <root>
        <mxCell id="0" />
        <mxCell id="1" parent="0" />
        <mxCell id="88" style="strokeColor=#444444;strokeWidth=2;endArrow=none;rounded=1;shadow=1;" parent="1" source="n_3_2_2" target="n_3_2_3" edge="1">
          <mxGeometry relative="1" as="geometry" />
        </mxCell>
        <mxCell id="103" style="strokeColor=#444444;strokeWidth=2;endArrow=none;rounded=1;shadow=1;" parent="1" source="n_0_2_3" target="n_1_2_3" edge="1">
          <mxGeometry relative="1" as="geometry" />
        </mxCell>
        <mxCell id="104" style="strokeColor=#444444;strokeWidth=2;endArrow=none;rounded=1;shadow=1;" parent="1" source="n_1_2_3" target="n_2_2_3" edge="1">
          <mxGeometry relative="1" as="geometry" />
        </mxCell>
        <mxCell id="105" style="strokeColor=#444444;strokeWidth=2;endArrow=none;rounded=1;shadow=1;" parent="1" source="n_2_2_3" target="n_3_2_3" edge="1">
          <mxGeometry relative="1" as="geometry" />
        </mxCell>
        <mxCell id="82" style="strokeColor=#444444;strokeWidth=2;endArrow=none;rounded=1;shadow=1;" parent="1" source="n_0_2_2" target="n_1_2_2" edge="1">
          <mxGeometry relative="1" as="geometry" />
        </mxCell>
        <mxCell id="83" style="strokeColor=#444444;strokeWidth=2;endArrow=none;rounded=1;shadow=1;" parent="1" source="n_0_2_2" target="n_0_2_3" edge="1">
          <mxGeometry relative="1" as="geometry" />
        </mxCell>
        <mxCell id="84" style="strokeColor=#444444;strokeWidth=2;endArrow=none;rounded=1;shadow=1;" parent="1" source="n_1_2_2" target="n_2_2_2" edge="1">
          <mxGeometry relative="1" as="geometry" />
        </mxCell>
        <mxCell id="85" style="strokeColor=#444444;strokeWidth=2;endArrow=none;rounded=1;shadow=1;" parent="1" source="n_1_2_2" target="n_1_2_3" edge="1">
          <mxGeometry relative="1" as="geometry" />
        </mxCell>
        <mxCell id="86" style="strokeColor=#444444;strokeWidth=2;endArrow=none;rounded=1;shadow=1;" parent="1" source="n_2_2_2" target="n_3_2_2" edge="1">
          <mxGeometry relative="1" as="geometry" />
        </mxCell>
        <mxCell id="87" style="strokeColor=#444444;strokeWidth=2;endArrow=none;rounded=1;shadow=1;" parent="1" source="n_2_2_2" target="n_2_2_3" edge="1">
          <mxGeometry relative="1" as="geometry" />
        </mxCell>
        <mxCell id="24" style="strokeColor=#444444;strokeWidth=2;endArrow=none;rounded=1;shadow=1;" parent="1" source="n_0_2_0" target="n_1_2_0" edge="1">
          <mxGeometry relative="1" as="geometry" />
        </mxCell>
        <mxCell id="25" style="strokeColor=#444444;strokeWidth=2;endArrow=none;rounded=1;shadow=1;" parent="1" source="n_0_2_0" target="n_0_2_1" edge="1">
          <mxGeometry relative="1" as="geometry" />
        </mxCell>
        <mxCell id="26" style="strokeColor=#444444;strokeWidth=2;endArrow=none;rounded=1;shadow=1;" parent="1" source="n_1_2_0" target="n_2_2_0" edge="1">
          <mxGeometry relative="1" as="geometry" />
        </mxCell>
        <mxCell id="27" style="strokeColor=#444444;strokeWidth=2;endArrow=none;rounded=1;shadow=1;" parent="1" source="n_1_2_0" target="n_1_2_1" edge="1">
          <mxGeometry relative="1" as="geometry" />
        </mxCell>
        <mxCell id="28" style="strokeColor=#444444;strokeWidth=2;endArrow=none;rounded=1;shadow=1;" parent="1" source="n_2_2_0" target="n_3_2_0" edge="1">
          <mxGeometry relative="1" as="geometry" />
        </mxCell>
        <mxCell id="29" style="strokeColor=#444444;strokeWidth=2;endArrow=none;rounded=1;shadow=1;" parent="1" source="n_2_2_0" target="n_2_2_1" edge="1">
          <mxGeometry relative="1" as="geometry" />
        </mxCell>
        <mxCell id="30" style="strokeColor=#444444;strokeWidth=2;endArrow=none;rounded=1;shadow=1;" parent="1" source="n_3_2_0" target="n_3_2_1" edge="1">
          <mxGeometry relative="1" as="geometry" />
        </mxCell>
        <mxCell id="53" style="strokeColor=#444444;strokeWidth=2;endArrow=none;rounded=1;shadow=1;" parent="1" source="n_0_2_1" target="n_1_2_1" edge="1">
          <mxGeometry relative="1" as="geometry" />
        </mxCell>
        <mxCell id="54" style="strokeColor=#444444;strokeWidth=2;endArrow=none;rounded=1;shadow=1;" parent="1" source="n_0_2_1" target="n_0_2_2" edge="1">
          <mxGeometry relative="1" as="geometry" />
        </mxCell>
        <mxCell id="55" style="strokeColor=#444444;strokeWidth=2;endArrow=none;rounded=1;shadow=1;" parent="1" source="n_1_2_1" target="n_2_2_1" edge="1">
          <mxGeometry relative="1" as="geometry" />
        </mxCell>
        <mxCell id="56" style="strokeColor=#444444;strokeWidth=2;endArrow=none;rounded=1;shadow=1;" parent="1" source="n_1_2_1" target="n_1_2_2" edge="1">
          <mxGeometry relative="1" as="geometry" />
        </mxCell>
        <mxCell id="57" style="strokeColor=#444444;strokeWidth=2;endArrow=none;rounded=1;shadow=1;" parent="1" source="n_2_2_1" target="n_3_2_1" edge="1">
          <mxGeometry relative="1" as="geometry" />
        </mxCell>
        <mxCell id="58" style="strokeColor=#444444;strokeWidth=2;endArrow=none;rounded=1;shadow=1;" parent="1" source="n_2_2_1" target="n_2_2_2" edge="1">
          <mxGeometry relative="1" as="geometry" />
        </mxCell>
        <mxCell id="59" style="strokeColor=#444444;strokeWidth=2;endArrow=none;rounded=1;shadow=1;" parent="1" source="n_3_2_1" target="n_3_2_2" edge="1">
          <mxGeometry relative="1" as="geometry" />
        </mxCell>
        <mxCell id="71" style="strokeColor=#444444;strokeWidth=2;endArrow=none;rounded=1;shadow=1;" parent="1" source="n_0_1_2" target="n_1_1_2" edge="1">
          <mxGeometry relative="1" as="geometry" />
        </mxCell>
        <mxCell id="73" style="strokeColor=#444444;strokeWidth=2;endArrow=none;rounded=1;shadow=1;" parent="1" source="n_0_1_2" target="n_0_1_3" edge="1">
          <mxGeometry relative="1" as="geometry" />
        </mxCell>
        <mxCell id="74" style="strokeColor=#444444;strokeWidth=2;endArrow=none;rounded=1;shadow=1;" parent="1" source="n_1_1_2" target="n_2_1_2" edge="1">
          <mxGeometry relative="1" as="geometry" />
        </mxCell>
        <mxCell id="76" style="strokeColor=#444444;strokeWidth=2;endArrow=none;rounded=1;shadow=1;" parent="1" source="n_1_1_2" target="n_1_1_3" edge="1">
          <mxGeometry relative="1" as="geometry" />
        </mxCell>
        <mxCell id="77" style="strokeColor=#444444;strokeWidth=2;endArrow=none;rounded=1;shadow=1;" parent="1" source="n_2_1_2" target="n_3_1_2" edge="1">
          <mxGeometry relative="1" as="geometry" />
        </mxCell>
        <mxCell id="79" style="strokeColor=#444444;strokeWidth=2;endArrow=none;rounded=1;shadow=1;" parent="1" source="n_2_1_2" target="n_2_1_3" edge="1">
          <mxGeometry relative="1" as="geometry" />
        </mxCell>
        <mxCell id="81" style="strokeColor=#444444;strokeWidth=2;endArrow=none;rounded=1;shadow=1;" parent="1" source="n_3_1_2" target="n_3_1_3" edge="1">
          <mxGeometry relative="1" as="geometry" />
        </mxCell>
        <mxCell id="96" style="strokeColor=#444444;strokeWidth=2;endArrow=none;rounded=1;shadow=1;" parent="1" source="n_0_1_3" target="n_1_1_3" edge="1">
          <mxGeometry relative="1" as="geometry" />
        </mxCell>
        <mxCell id="98" style="strokeColor=#444444;strokeWidth=2;endArrow=none;rounded=1;shadow=1;" parent="1" source="n_1_1_3" target="n_2_1_3" edge="1">
          <mxGeometry relative="1" as="geometry" />
        </mxCell>
        <mxCell id="100" style="strokeColor=#444444;strokeWidth=2;endArrow=none;rounded=1;shadow=1;" parent="1" source="n_2_1_3" target="n_3_1_3" edge="1">
          <mxGeometry relative="1" as="geometry" />
        </mxCell>
        <mxCell id="13" style="strokeColor=#444444;strokeWidth=2;endArrow=none;rounded=1;shadow=1;" parent="1" source="n_0_1_0" target="n_1_1_0" edge="1">
          <mxGeometry relative="1" as="geometry" />
        </mxCell>
        <mxCell id="15" style="strokeColor=#444444;strokeWidth=2;endArrow=none;rounded=1;shadow=1;" parent="1" source="n_0_1_0" target="n_0_1_1" edge="1">
          <mxGeometry relative="1" as="geometry" />
        </mxCell>
        <mxCell id="16" style="strokeColor=#444444;strokeWidth=2;endArrow=none;rounded=1;shadow=1;" parent="1" source="n_1_1_0" target="n_2_1_0" edge="1">
          <mxGeometry relative="1" as="geometry" />
        </mxCell>
        <mxCell id="18" style="strokeColor=#444444;strokeWidth=2;endArrow=none;rounded=1;shadow=1;" parent="1" source="n_1_1_0" target="n_1_1_1" edge="1">
          <mxGeometry relative="1" as="geometry" />
        </mxCell>
        <mxCell id="19" style="strokeColor=#444444;strokeWidth=2;endArrow=none;rounded=1;shadow=1;" parent="1" source="n_2_1_0" target="n_3_1_0" edge="1">
          <mxGeometry relative="1" as="geometry" />
        </mxCell>
        <mxCell id="21" style="strokeColor=#444444;strokeWidth=2;endArrow=none;rounded=1;shadow=1;" parent="1" source="n_2_1_0" target="n_2_1_1" edge="1">
          <mxGeometry relative="1" as="geometry" />
        </mxCell>
        <mxCell id="23" style="strokeColor=#444444;strokeWidth=2;endArrow=none;rounded=1;shadow=1;" parent="1" source="n_3_1_0" target="n_3_1_1" edge="1">
          <mxGeometry relative="1" as="geometry" />
        </mxCell>
        <mxCell id="42" style="strokeColor=#444444;strokeWidth=2;endArrow=none;rounded=1;shadow=1;" parent="1" source="n_0_1_1" target="n_1_1_1" edge="1">
          <mxGeometry relative="1" as="geometry" />
        </mxCell>
        <mxCell id="44" style="strokeColor=#444444;strokeWidth=2;endArrow=none;rounded=1;shadow=1;" parent="1" source="n_0_1_1" target="n_0_1_2" edge="1">
          <mxGeometry relative="1" as="geometry" />
        </mxCell>
        <mxCell id="45" style="strokeColor=#444444;strokeWidth=2;endArrow=none;rounded=1;shadow=1;" parent="1" source="n_1_1_1" target="n_2_1_1" edge="1">
          <mxGeometry relative="1" as="geometry" />
        </mxCell>
        <mxCell id="47" style="strokeColor=#444444;strokeWidth=2;endArrow=none;rounded=1;shadow=1;" parent="1" source="n_1_1_1" target="n_1_1_2" edge="1">
          <mxGeometry relative="1" as="geometry" />
        </mxCell>
        <mxCell id="48" style="strokeColor=#444444;strokeWidth=2;endArrow=none;rounded=1;shadow=1;" parent="1" source="n_2_1_1" target="n_3_1_1" edge="1">
          <mxGeometry relative="1" as="geometry" />
        </mxCell>
        <mxCell id="50" style="strokeColor=#444444;strokeWidth=2;endArrow=none;rounded=1;shadow=1;" parent="1" source="n_2_1_1" target="n_2_1_2" edge="1">
          <mxGeometry relative="1" as="geometry" />
        </mxCell>
        <mxCell id="52" style="strokeColor=#444444;strokeWidth=2;endArrow=none;rounded=1;shadow=1;" parent="1" source="n_3_1_1" target="n_3_1_2" edge="1">
          <mxGeometry relative="1" as="geometry" />
        </mxCell>
        <mxCell id="31" style="strokeColor=#444444;strokeWidth=2;endArrow=none;rounded=1;shadow=1;" parent="1" source="n_0_0_1" target="n_1_0_1" edge="1">
          <mxGeometry relative="1" as="geometry" />
        </mxCell>
        <mxCell id="33" style="strokeColor=#444444;strokeWidth=2;endArrow=none;rounded=1;shadow=1;" parent="1" source="n_0_0_1" target="n_0_0_2" edge="1">
          <mxGeometry relative="1" as="geometry" />
        </mxCell>
        <mxCell id="34" style="strokeColor=#444444;strokeWidth=2;endArrow=none;rounded=1;shadow=1;" parent="1" source="n_1_0_1" target="n_2_0_1" edge="1">
          <mxGeometry relative="1" as="geometry" />
        </mxCell>
        <mxCell id="36" style="strokeColor=#444444;strokeWidth=2;endArrow=none;rounded=1;shadow=1;" parent="1" source="n_1_0_1" target="n_1_0_2" edge="1">
          <mxGeometry relative="1" as="geometry" />
        </mxCell>
        <mxCell id="37" style="strokeColor=#444444;strokeWidth=2;endArrow=none;rounded=1;shadow=1;" parent="1" source="n_2_0_1" target="n_3_0_1" edge="1">
          <mxGeometry relative="1" as="geometry" />
        </mxCell>
        <mxCell id="39" style="strokeColor=#444444;strokeWidth=2;endArrow=none;rounded=1;shadow=1;" parent="1" source="n_2_0_1" target="n_2_0_2" edge="1">
          <mxGeometry relative="1" as="geometry" />
        </mxCell>
        <mxCell id="41" style="strokeColor=#444444;strokeWidth=2;endArrow=none;rounded=1;shadow=1;" parent="1" source="n_3_0_1" target="n_3_0_2" edge="1">
          <mxGeometry relative="1" as="geometry" />
        </mxCell>
        <mxCell id="60" style="strokeColor=#444444;strokeWidth=2;endArrow=none;rounded=1;shadow=1;" parent="1" source="n_0_0_2" target="n_1_0_2" edge="1">
          <mxGeometry relative="1" as="geometry" />
        </mxCell>
        <mxCell id="62" style="strokeColor=#444444;strokeWidth=2;endArrow=none;rounded=1;shadow=1;" parent="1" source="n_0_0_2" target="n_0_0_3" edge="1">
          <mxGeometry relative="1" as="geometry" />
        </mxCell>
        <mxCell id="63" style="strokeColor=#444444;strokeWidth=2;endArrow=none;rounded=1;shadow=1;" parent="1" source="n_1_0_2" target="n_2_0_2" edge="1">
          <mxGeometry relative="1" as="geometry" />
        </mxCell>
        <mxCell id="65" style="strokeColor=#444444;strokeWidth=2;endArrow=none;rounded=1;shadow=1;" parent="1" source="n_1_0_2" target="n_1_0_3" edge="1">
          <mxGeometry relative="1" as="geometry" />
        </mxCell>
        <mxCell id="66" style="strokeColor=#444444;strokeWidth=2;endArrow=none;rounded=1;shadow=1;" parent="1" source="n_2_0_2" target="n_3_0_2" edge="1">
          <mxGeometry relative="1" as="geometry" />
        </mxCell>
        <mxCell id="68" style="strokeColor=#444444;strokeWidth=2;endArrow=none;rounded=1;shadow=1;" parent="1" source="n_2_0_2" target="n_2_0_3" edge="1">
          <mxGeometry relative="1" as="geometry" />
        </mxCell>
        <mxCell id="70" style="strokeColor=#444444;strokeWidth=2;endArrow=none;rounded=1;shadow=1;" parent="1" source="n_3_0_2" target="n_3_0_3" edge="1">
          <mxGeometry relative="1" as="geometry" />
        </mxCell>
        <mxCell id="2" style="strokeColor=#444444;strokeWidth=2;endArrow=none;rounded=1;shadow=1;" parent="1" source="n_0_0_0" target="n_1_0_0" edge="1">
          <mxGeometry relative="1" as="geometry" />
        </mxCell>
        <mxCell id="4" style="strokeColor=#444444;strokeWidth=2;endArrow=none;rounded=1;shadow=1;" parent="1" source="n_0_0_0" target="n_0_0_1" edge="1">
          <mxGeometry relative="1" as="geometry" />
        </mxCell>
        <mxCell id="5" style="strokeColor=#444444;strokeWidth=2;endArrow=none;rounded=1;shadow=1;" parent="1" source="n_1_0_0" target="n_2_0_0" edge="1">
          <mxGeometry relative="1" as="geometry" />
        </mxCell>
        <mxCell id="7" style="strokeColor=#444444;strokeWidth=2;endArrow=none;rounded=1;shadow=1;" parent="1" source="n_1_0_0" target="n_1_0_1" edge="1">
          <mxGeometry relative="1" as="geometry" />
        </mxCell>
        <mxCell id="8" style="strokeColor=#444444;strokeWidth=2;endArrow=none;rounded=1;shadow=1;" parent="1" source="n_2_0_0" target="n_3_0_0" edge="1">
          <mxGeometry relative="1" as="geometry" />
        </mxCell>
        <mxCell id="10" style="strokeColor=#444444;strokeWidth=2;endArrow=none;rounded=1;shadow=1;" parent="1" source="n_2_0_0" target="n_2_0_1" edge="1">
          <mxGeometry relative="1" as="geometry" />
        </mxCell>
        <mxCell id="12" style="strokeColor=#444444;strokeWidth=2;endArrow=none;rounded=1;shadow=1;" parent="1" source="n_3_0_0" target="n_3_0_1" edge="1">
          <mxGeometry relative="1" as="geometry" />
        </mxCell>
        <mxCell id="n_0_0_0" value="" style="shape=ellipse;fillColor=#ADD8E6;strokeColor=#004080;gradientColor=#E0F7FF;gradientDirection=north;glass=1;shadow=1;" parent="1" vertex="1">
          <mxGeometry width="50" height="50" as="geometry" />
        </mxCell>
        <mxCell id="n_1_0_0" value="" style="shape=ellipse;fillColor=#ADD8E6;strokeColor=#004080;gradientColor=#E0F7FF;gradientDirection=north;glass=1;shadow=1;" parent="1" vertex="1">
          <mxGeometry x="100" width="50" height="50" as="geometry" />
        </mxCell>
        <mxCell id="n_2_0_0" value="" style="shape=ellipse;fillColor=#ADD8E6;strokeColor=#004080;gradientColor=#E0F7FF;gradientDirection=north;glass=1;shadow=1;" parent="1" vertex="1">
          <mxGeometry x="200" width="50" height="50" as="geometry" />
        </mxCell>
        <mxCell id="n_3_0_0" value="" style="shape=ellipse;fillColor=#ADD8E6;strokeColor=#004080;gradientColor=#E0F7FF;gradientDirection=north;glass=1;shadow=1;" parent="1" vertex="1">
          <mxGeometry x="300" width="50" height="50" as="geometry" />
        </mxCell>
        <mxCell id="n_0_0_1" value="" style="shape=ellipse;fillColor=#ADD8E6;strokeColor=#004080;gradientColor=#E0F7FF;gradientDirection=north;glass=1;shadow=1;" parent="1" vertex="1">
          <mxGeometry x="25" y="25" width="50" height="50" as="geometry" />
        </mxCell>
        <mxCell id="n_1_0_1" value="" style="shape=ellipse;fillColor=#ADD8E6;strokeColor=#004080;gradientColor=#E0F7FF;gradientDirection=north;glass=1;shadow=1;" parent="1" vertex="1">
          <mxGeometry x="125" y="25" width="50" height="50" as="geometry" />
        </mxCell>
        <mxCell id="n_2_0_1" value="" style="shape=ellipse;fillColor=#ADD8E6;strokeColor=#004080;gradientColor=#E0F7FF;gradientDirection=north;glass=1;shadow=1;" parent="1" vertex="1">
          <mxGeometry x="225" y="25" width="50" height="50" as="geometry" />
        </mxCell>
        <mxCell id="n_3_0_1" value="" style="shape=ellipse;fillColor=#ADD8E6;strokeColor=#004080;gradientColor=#E0F7FF;gradientDirection=north;glass=1;shadow=1;" parent="1" vertex="1">
          <mxGeometry x="325" y="25" width="50" height="50" as="geometry" />
        </mxCell>
        <mxCell id="n_0_0_2" value="" style="shape=ellipse;fillColor=#ADD8E6;strokeColor=#004080;gradientColor=#E0F7FF;gradientDirection=north;glass=1;shadow=1;" parent="1" vertex="1">
          <mxGeometry x="50" y="50" width="50" height="50" as="geometry" />
        </mxCell>
        <mxCell id="n_1_0_2" value="" style="shape=ellipse;fillColor=#ADD8E6;strokeColor=#004080;gradientColor=#E0F7FF;gradientDirection=north;glass=1;shadow=1;" parent="1" vertex="1">
          <mxGeometry x="150" y="50" width="50" height="50" as="geometry" />
        </mxCell>
        <mxCell id="n_2_0_2" value="" style="shape=ellipse;fillColor=#ADD8E6;strokeColor=#004080;gradientColor=#E0F7FF;gradientDirection=north;glass=1;shadow=1;" parent="1" vertex="1">
          <mxGeometry x="250" y="50" width="50" height="50" as="geometry" />
        </mxCell>
        <mxCell id="n_3_0_2" value="" style="shape=ellipse;fillColor=#ADD8E6;strokeColor=#004080;gradientColor=#E0F7FF;gradientDirection=north;glass=1;shadow=1;" parent="1" vertex="1">
          <mxGeometry x="350" y="50" width="50" height="50" as="geometry" />
        </mxCell>
        <mxCell id="n_0_0_3" value="" style="shape=ellipse;fillColor=#ADD8E6;strokeColor=#004080;gradientColor=#E0F7FF;gradientDirection=north;glass=1;shadow=1;" parent="1" vertex="1">
          <mxGeometry x="75" y="75" width="50" height="50" as="geometry" />
        </mxCell>
        <mxCell id="n_1_0_3" value="" style="shape=ellipse;fillColor=#ADD8E6;strokeColor=#004080;gradientColor=#E0F7FF;gradientDirection=north;glass=1;shadow=1;" parent="1" vertex="1">
          <mxGeometry x="175" y="75" width="50" height="50" as="geometry" />
        </mxCell>
        <mxCell id="n_2_0_3" value="" style="shape=ellipse;fillColor=#ADD8E6;strokeColor=#004080;gradientColor=#E0F7FF;gradientDirection=north;glass=1;shadow=1;" parent="1" vertex="1">
          <mxGeometry x="275" y="75" width="50" height="50" as="geometry" />
        </mxCell>
        <mxCell id="n_3_0_3" value="" style="shape=ellipse;fillColor=#ADD8E6;strokeColor=#004080;gradientColor=#E0F7FF;gradientDirection=north;glass=1;shadow=1;" parent="1" vertex="1">
          <mxGeometry x="375" y="75" width="50" height="50" as="geometry" />
        </mxCell>
        <mxCell id="3" style="strokeColor=#444444;strokeWidth=2;endArrow=none;rounded=1;shadow=1;" parent="1" source="n_0_0_0" target="n_0_1_0" edge="1">
          <mxGeometry relative="1" as="geometry" />
        </mxCell>
        <mxCell id="6" style="strokeColor=#444444;strokeWidth=2;endArrow=none;rounded=1;shadow=1;" parent="1" source="n_1_0_0" target="n_1_1_0" edge="1">
          <mxGeometry relative="1" as="geometry" />
        </mxCell>
        <mxCell id="9" style="strokeColor=#444444;strokeWidth=2;endArrow=none;rounded=1;shadow=1;" parent="1" source="n_2_0_0" target="n_2_1_0" edge="1">
          <mxGeometry relative="1" as="geometry" />
        </mxCell>
        <mxCell id="11" style="strokeColor=#444444;strokeWidth=2;endArrow=none;rounded=1;shadow=1;" parent="1" source="n_3_0_0" target="n_3_1_0" edge="1">
          <mxGeometry relative="1" as="geometry" />
        </mxCell>
        <mxCell id="32" style="strokeColor=#444444;strokeWidth=2;endArrow=none;rounded=1;shadow=1;" parent="1" source="n_0_0_1" target="n_0_1_1" edge="1">
          <mxGeometry relative="1" as="geometry" />
        </mxCell>
        <mxCell id="35" style="strokeColor=#444444;strokeWidth=2;endArrow=none;rounded=1;shadow=1;" parent="1" source="n_1_0_1" target="n_1_1_1" edge="1">
          <mxGeometry relative="1" as="geometry" />
        </mxCell>
        <mxCell id="38" style="strokeColor=#444444;strokeWidth=2;endArrow=none;rounded=1;shadow=1;" parent="1" source="n_2_0_1" target="n_2_1_1" edge="1">
          <mxGeometry relative="1" as="geometry" />
        </mxCell>
        <mxCell id="40" style="strokeColor=#444444;strokeWidth=2;endArrow=none;rounded=1;shadow=1;" parent="1" source="n_3_0_1" target="n_3_1_1" edge="1">
          <mxGeometry relative="1" as="geometry" />
        </mxCell>
        <mxCell id="102" style="strokeColor=#444444;strokeWidth=2;endArrow=none;rounded=1;shadow=1;" parent="1" source="n_3_1_3" target="n_3_2_3" edge="1">
          <mxGeometry relative="1" as="geometry" />
        </mxCell>
        <mxCell id="89" style="strokeColor=#444444;strokeWidth=2;endArrow=none;rounded=1;shadow=1;" parent="1" source="n_0_0_3" target="n_1_0_3" edge="1">
          <mxGeometry relative="1" as="geometry" />
        </mxCell>
        <mxCell id="91" style="strokeColor=#444444;strokeWidth=2;endArrow=none;rounded=1;shadow=1;" parent="1" source="n_1_0_3" target="n_2_0_3" edge="1">
          <mxGeometry relative="1" as="geometry" />
        </mxCell>
        <mxCell id="93" style="strokeColor=#444444;strokeWidth=2;endArrow=none;rounded=1;shadow=1;" parent="1" source="n_2_0_3" target="n_3_0_3" edge="1">
          <mxGeometry relative="1" as="geometry" />
        </mxCell>
        <mxCell id="n_0_1_0" value="" style="shape=ellipse;fillColor=#ADD8E6;strokeColor=#004080;gradientColor=#E0F7FF;gradientDirection=north;glass=1;shadow=1;" parent="1" vertex="1">
          <mxGeometry y="100" width="50" height="50" as="geometry" />
        </mxCell>
        <mxCell id="n_1_1_0" value="" style="shape=ellipse;fillColor=#ADD8E6;strokeColor=#004080;gradientColor=#E0F7FF;gradientDirection=north;glass=1;shadow=1;" parent="1" vertex="1">
          <mxGeometry x="100" y="100" width="50" height="50" as="geometry" />
        </mxCell>
        <mxCell id="n_2_1_0" value="" style="shape=ellipse;fillColor=#ADD8E6;strokeColor=#004080;gradientColor=#E0F7FF;gradientDirection=north;glass=1;shadow=1;" parent="1" vertex="1">
          <mxGeometry x="200" y="100" width="50" height="50" as="geometry" />
        </mxCell>
        <mxCell id="n_3_1_0" value="" style="shape=ellipse;fillColor=#ADD8E6;strokeColor=#004080;gradientColor=#E0F7FF;gradientDirection=north;glass=1;shadow=1;" parent="1" vertex="1">
          <mxGeometry x="300" y="100" width="50" height="50" as="geometry" />
        </mxCell>
        <mxCell id="61" style="strokeColor=#444444;strokeWidth=2;endArrow=none;rounded=1;shadow=1;" parent="1" source="n_0_0_2" target="n_0_1_2" edge="1">
          <mxGeometry relative="1" as="geometry" />
        </mxCell>
        <mxCell id="64" style="strokeColor=#444444;strokeWidth=2;endArrow=none;rounded=1;shadow=1;" parent="1" source="n_1_0_2" target="n_1_1_2" edge="1">
          <mxGeometry relative="1" as="geometry" />
        </mxCell>
        <mxCell id="67" style="strokeColor=#444444;strokeWidth=2;endArrow=none;rounded=1;shadow=1;" parent="1" source="n_2_0_2" target="n_2_1_2" edge="1">
          <mxGeometry relative="1" as="geometry" />
        </mxCell>
        <mxCell id="69" style="strokeColor=#444444;strokeWidth=2;endArrow=none;rounded=1;shadow=1;" parent="1" source="n_3_0_2" target="n_3_1_2" edge="1">
          <mxGeometry relative="1" as="geometry" />
        </mxCell>
        <mxCell id="n_0_1_1" value="" style="shape=ellipse;fillColor=#ADD8E6;strokeColor=#004080;gradientColor=#E0F7FF;gradientDirection=north;glass=1;shadow=1;" parent="1" vertex="1">
          <mxGeometry x="25" y="125" width="50" height="50" as="geometry" />
        </mxCell>
        <mxCell id="n_1_1_1" value="" style="shape=ellipse;fillColor=#ADD8E6;strokeColor=#004080;gradientColor=#E0F7FF;gradientDirection=north;glass=1;shadow=1;" parent="1" vertex="1">
          <mxGeometry x="125" y="125" width="50" height="50" as="geometry" />
        </mxCell>
        <mxCell id="n_2_1_1" value="" style="shape=ellipse;fillColor=#ADD8E6;strokeColor=#004080;gradientColor=#E0F7FF;gradientDirection=north;glass=1;shadow=1;" parent="1" vertex="1">
          <mxGeometry x="225" y="125" width="50" height="50" as="geometry" />
        </mxCell>
        <mxCell id="n_3_1_1" value="" style="shape=ellipse;fillColor=#ADD8E6;strokeColor=#004080;gradientColor=#E0F7FF;gradientDirection=north;glass=1;shadow=1;" parent="1" vertex="1">
          <mxGeometry x="325" y="125" width="50" height="50" as="geometry" />
        </mxCell>
        <mxCell id="90" style="strokeColor=#444444;strokeWidth=2;endArrow=none;rounded=1;shadow=1;" parent="1" source="n_0_0_3" target="n_0_1_3" edge="1">
          <mxGeometry relative="1" as="geometry" />
        </mxCell>
        <mxCell id="92" style="strokeColor=#444444;strokeWidth=2;endArrow=none;rounded=1;shadow=1;" parent="1" source="n_1_0_3" target="n_1_1_3" edge="1">
          <mxGeometry relative="1" as="geometry" />
        </mxCell>
        <mxCell id="94" style="strokeColor=#444444;strokeWidth=2;endArrow=none;rounded=1;shadow=1;" parent="1" source="n_2_0_3" target="n_2_1_3" edge="1">
          <mxGeometry relative="1" as="geometry" />
        </mxCell>
        <mxCell id="95" style="strokeColor=#444444;strokeWidth=2;endArrow=none;rounded=1;shadow=1;" parent="1" source="n_3_0_3" target="n_3_1_3" edge="1">
          <mxGeometry relative="1" as="geometry" />
        </mxCell>
        <mxCell id="n_0_1_2" value="" style="shape=ellipse;fillColor=#ADD8E6;strokeColor=#004080;gradientColor=#E0F7FF;gradientDirection=north;glass=1;shadow=1;" parent="1" vertex="1">
          <mxGeometry x="50" y="150" width="50" height="50" as="geometry" />
        </mxCell>
        <mxCell id="n_1_1_2" value="" style="shape=ellipse;fillColor=#ADD8E6;strokeColor=#004080;gradientColor=#E0F7FF;gradientDirection=north;glass=1;shadow=1;" parent="1" vertex="1">
          <mxGeometry x="150" y="150" width="50" height="50" as="geometry" />
        </mxCell>
        <mxCell id="n_2_1_2" value="" style="shape=ellipse;fillColor=#ADD8E6;strokeColor=#004080;gradientColor=#E0F7FF;gradientDirection=north;glass=1;shadow=1;" parent="1" vertex="1">
          <mxGeometry x="250" y="150" width="50" height="50" as="geometry" />
        </mxCell>
        <mxCell id="n_3_1_2" value="" style="shape=ellipse;fillColor=#ADD8E6;strokeColor=#004080;gradientColor=#E0F7FF;gradientDirection=north;glass=1;shadow=1;" parent="1" vertex="1">
          <mxGeometry x="350" y="150" width="50" height="50" as="geometry" />
        </mxCell>
        <mxCell id="14" style="strokeColor=#444444;strokeWidth=2;endArrow=none;rounded=1;shadow=1;" parent="1" source="n_0_1_0" target="n_0_2_0" edge="1">
          <mxGeometry relative="1" as="geometry" />
        </mxCell>
        <mxCell id="17" style="strokeColor=#444444;strokeWidth=2;endArrow=none;rounded=1;shadow=1;" parent="1" source="n_1_1_0" target="n_1_2_0" edge="1">
          <mxGeometry relative="1" as="geometry" />
        </mxCell>
        <mxCell id="20" style="strokeColor=#444444;strokeWidth=2;endArrow=none;rounded=1;shadow=1;" parent="1" source="n_2_1_0" target="n_2_2_0" edge="1">
          <mxGeometry relative="1" as="geometry" />
        </mxCell>
        <mxCell id="22" style="strokeColor=#444444;strokeWidth=2;endArrow=none;rounded=1;shadow=1;" parent="1" source="n_3_1_0" target="n_3_2_0" edge="1">
          <mxGeometry relative="1" as="geometry" />
        </mxCell>
        <mxCell id="n_0_1_3" value="" style="shape=ellipse;fillColor=#ADD8E6;strokeColor=#004080;gradientColor=#E0F7FF;gradientDirection=north;glass=1;shadow=1;" parent="1" vertex="1">
          <mxGeometry x="75" y="175" width="50" height="50" as="geometry" />
        </mxCell>
        <mxCell id="n_1_1_3" value="" style="shape=ellipse;fillColor=#ADD8E6;strokeColor=#004080;gradientColor=#E0F7FF;gradientDirection=north;glass=1;shadow=1;" parent="1" vertex="1">
          <mxGeometry x="175" y="175" width="50" height="50" as="geometry" />
        </mxCell>
        <mxCell id="n_2_1_3" value="" style="shape=ellipse;fillColor=#ADD8E6;strokeColor=#004080;gradientColor=#E0F7FF;gradientDirection=north;glass=1;shadow=1;" parent="1" vertex="1">
          <mxGeometry x="275" y="175" width="50" height="50" as="geometry" />
        </mxCell>
        <mxCell id="n_3_1_3" value="" style="shape=ellipse;fillColor=#ADD8E6;strokeColor=#004080;gradientColor=#E0F7FF;gradientDirection=north;glass=1;shadow=1;" parent="1" vertex="1">
          <mxGeometry x="375" y="175" width="50" height="50" as="geometry" />
        </mxCell>
        <mxCell id="43" style="strokeColor=#444444;strokeWidth=2;endArrow=none;rounded=1;shadow=1;" parent="1" source="n_0_1_1" target="n_0_2_1" edge="1">
          <mxGeometry relative="1" as="geometry" />
        </mxCell>
        <mxCell id="46" style="strokeColor=#444444;strokeWidth=2;endArrow=none;rounded=1;shadow=1;" parent="1" source="n_1_1_1" target="n_1_2_1" edge="1">
          <mxGeometry relative="1" as="geometry" />
        </mxCell>
        <mxCell id="49" style="strokeColor=#444444;strokeWidth=2;endArrow=none;rounded=1;shadow=1;" parent="1" source="n_2_1_1" target="n_2_2_1" edge="1">
          <mxGeometry relative="1" as="geometry" />
        </mxCell>
        <mxCell id="51" style="strokeColor=#444444;strokeWidth=2;endArrow=none;rounded=1;shadow=1;" parent="1" source="n_3_1_1" target="n_3_2_1" edge="1">
          <mxGeometry relative="1" as="geometry" />
        </mxCell>
        <mxCell id="n_0_2_0" value="" style="shape=ellipse;fillColor=#ADD8E6;strokeColor=#004080;gradientColor=#E0F7FF;gradientDirection=north;glass=1;shadow=1;" parent="1" vertex="1">
          <mxGeometry y="200" width="50" height="50" as="geometry" />
        </mxCell>
        <mxCell id="n_1_2_0" value="" style="shape=ellipse;fillColor=#ADD8E6;strokeColor=#004080;gradientColor=#E0F7FF;gradientDirection=north;glass=1;shadow=1;" parent="1" vertex="1">
          <mxGeometry x="100" y="200" width="50" height="50" as="geometry" />
        </mxCell>
        <mxCell id="n_2_2_0" value="" style="shape=ellipse;fillColor=#ADD8E6;strokeColor=#004080;gradientColor=#E0F7FF;gradientDirection=north;glass=1;shadow=1;" parent="1" vertex="1">
          <mxGeometry x="200" y="200" width="50" height="50" as="geometry" />
        </mxCell>
        <mxCell id="n_3_2_0" value="" style="shape=ellipse;fillColor=#ADD8E6;strokeColor=#004080;gradientColor=#E0F7FF;gradientDirection=north;glass=1;shadow=1;" parent="1" vertex="1">
          <mxGeometry x="300" y="200" width="50" height="50" as="geometry" />
        </mxCell>
        <mxCell id="72" style="strokeColor=#444444;strokeWidth=2;endArrow=none;rounded=1;shadow=1;" parent="1" source="n_0_1_2" target="n_0_2_2" edge="1">
          <mxGeometry relative="1" as="geometry" />
        </mxCell>
        <mxCell id="75" style="strokeColor=#444444;strokeWidth=2;endArrow=none;rounded=1;shadow=1;" parent="1" source="n_1_1_2" target="n_1_2_2" edge="1">
          <mxGeometry relative="1" as="geometry" />
        </mxCell>
        <mxCell id="78" style="strokeColor=#444444;strokeWidth=2;endArrow=none;rounded=1;shadow=1;" parent="1" source="n_2_1_2" target="n_2_2_2" edge="1">
          <mxGeometry relative="1" as="geometry" />
        </mxCell>
        <mxCell id="80" style="strokeColor=#444444;strokeWidth=2;endArrow=none;rounded=1;shadow=1;" parent="1" source="n_3_1_2" target="n_3_2_2" edge="1">
          <mxGeometry relative="1" as="geometry" />
        </mxCell>
        <mxCell id="n_0_2_1" value="" style="shape=ellipse;fillColor=#ADD8E6;strokeColor=#004080;gradientColor=#E0F7FF;gradientDirection=north;glass=1;shadow=1;" parent="1" vertex="1">
          <mxGeometry x="25" y="225" width="50" height="50" as="geometry" />
        </mxCell>
        <mxCell id="n_1_2_1" value="" style="shape=ellipse;fillColor=#ADD8E6;strokeColor=#004080;gradientColor=#E0F7FF;gradientDirection=north;glass=1;shadow=1;" parent="1" vertex="1">
          <mxGeometry x="125" y="225" width="50" height="50" as="geometry" />
        </mxCell>
        <mxCell id="n_2_2_1" value="" style="shape=ellipse;fillColor=#ADD8E6;strokeColor=#004080;gradientColor=#E0F7FF;gradientDirection=north;glass=1;shadow=1;" parent="1" vertex="1">
          <mxGeometry x="225" y="225" width="50" height="50" as="geometry" />
        </mxCell>
        <mxCell id="n_3_2_1" value="" style="shape=ellipse;fillColor=#ADD8E6;strokeColor=#004080;gradientColor=#E0F7FF;gradientDirection=north;glass=1;shadow=1;" parent="1" vertex="1">
          <mxGeometry x="325" y="225" width="50" height="50" as="geometry" />
        </mxCell>
        <mxCell id="97" style="strokeColor=#444444;strokeWidth=2;endArrow=none;rounded=1;shadow=1;" parent="1" source="n_0_1_3" target="n_0_2_3" edge="1">
          <mxGeometry relative="1" as="geometry" />
        </mxCell>
        <mxCell id="99" style="strokeColor=#444444;strokeWidth=2;endArrow=none;rounded=1;shadow=1;" parent="1" source="n_1_1_3" target="n_1_2_3" edge="1">
          <mxGeometry relative="1" as="geometry" />
        </mxCell>
        <mxCell id="101" style="strokeColor=#444444;strokeWidth=2;endArrow=none;rounded=1;shadow=1;" parent="1" source="n_2_1_3" target="n_2_2_3" edge="1">
          <mxGeometry relative="1" as="geometry" />
        </mxCell>
        <mxCell id="n_0_2_2" value="" style="shape=ellipse;fillColor=#ADD8E6;strokeColor=#004080;gradientColor=#E0F7FF;gradientDirection=north;glass=1;shadow=1;" parent="1" vertex="1">
          <mxGeometry x="50" y="250" width="50" height="50" as="geometry" />
        </mxCell>
        <mxCell id="n_1_2_2" value="" style="shape=ellipse;fillColor=#ADD8E6;strokeColor=#004080;gradientColor=#E0F7FF;gradientDirection=north;glass=1;shadow=1;" parent="1" vertex="1">
          <mxGeometry x="150" y="250" width="50" height="50" as="geometry" />
        </mxCell>
        <mxCell id="n_2_2_2" value="" style="shape=ellipse;fillColor=#ADD8E6;strokeColor=#004080;gradientColor=#E0F7FF;gradientDirection=north;glass=1;shadow=1;" parent="1" vertex="1">
          <mxGeometry x="250" y="250" width="50" height="50" as="geometry" />
        </mxCell>
        <mxCell id="n_3_2_2" value="" style="shape=ellipse;fillColor=#ADD8E6;strokeColor=#004080;gradientColor=#E0F7FF;gradientDirection=north;glass=1;shadow=1;" parent="1" vertex="1">
          <mxGeometry x="350" y="250" width="50" height="50" as="geometry" />
        </mxCell>
        <mxCell id="n_0_2_3" value="" style="shape=ellipse;fillColor=#ADD8E6;strokeColor=#004080;gradientColor=#E0F7FF;gradientDirection=north;glass=1;shadow=1;" parent="1" vertex="1">
          <mxGeometry x="75" y="275" width="50" height="50" as="geometry" />
        </mxCell>
        <mxCell id="n_1_2_3" value="" style="shape=ellipse;fillColor=#ADD8E6;strokeColor=#004080;gradientColor=#E0F7FF;gradientDirection=north;glass=1;shadow=1;" parent="1" vertex="1">
          <mxGeometry x="175" y="275" width="50" height="50" as="geometry" />
        </mxCell>
        <mxCell id="n_2_2_3" value="" style="shape=ellipse;fillColor=#ADD8E6;strokeColor=#004080;gradientColor=#E0F7FF;gradientDirection=north;glass=1;shadow=1;" parent="1" vertex="1">
          <mxGeometry x="275" y="275" width="50" height="50" as="geometry" />
        </mxCell>
        <mxCell id="n_3_2_3" value="" style="shape=ellipse;fillColor=#ADD8E6;strokeColor=#004080;gradientColor=#E0F7FF;gradientDirection=north;glass=1;shadow=1;" parent="1" vertex="1">
          <mxGeometry x="375" y="275" width="50" height="50" as="geometry" />
        </mxCell>
      </root>
    </mxGraphModel>
  </diagram>
</mxfile>
